<svg width="16" height="12" viewBox="0 0 16 12" fill="none" xmlns="http://www.w3.org/2000/svg">
<path fill-rule="evenodd" clip-rule="evenodd" d="M6.09002 0.218306C6.37403 0.50938 6.37403 0.981304 6.09002 1.27238L2.48306 4.96894L10.4242 4.96894C11.3487 4.96894 12.7192 5.24704 13.8795 6.1032C15.0769 6.98673 16 8.45273 16 10.6832C16 11.0949 15.6744 11.4286 15.2727 11.4286C14.8711 11.4286 14.5455 11.0949 14.5455 10.6832C14.5455 8.93857 13.8524 7.9201 13.0296 7.31295C12.1697 6.67842 11.1159 6.45963 10.4242 6.45963L2.48306 6.45963L6.09002 10.1562C6.37403 10.4473 6.37403 10.9192 6.09002 11.2103C5.806 11.5013 5.34552 11.5013 5.0615 11.2103L0.213013 6.24132C-0.0710044 5.95025 -0.0710044 5.47832 0.213013 5.18725L5.0615 0.218305C5.34552 -0.0727685 5.806 -0.0727685 6.09002 0.218306Z" fill="white"/>
</svg>
