<svg width="172" height="37" viewBox="0 0 172 37" fill="none" xmlns="http://www.w3.org/2000/svg">
<mask id="mask0_30_388" style="mask-type:alpha" maskUnits="userSpaceOnUse" x="0" y="0" width="37" height="37">
<circle cx="18.3569" cy="18.3569" r="18.3569" fill="#D9D9D9"/>
</mask>
<g mask="url(#mask0_30_388)">
<path d="M19.6418 15.2341C10.2798 11.9299 4.58917 3.85288 4.58917 3.85288L11.1976 -0.736328C11.1976 -0.736328 16.154 5.505 22.7625 7.89139C29.3709 10.2778 37.0808 8.62567 37.0808 8.62567V17.0698C37.0808 17.0698 29.0038 18.5384 19.6418 15.2341Z" fill="white"/>
<path d="M16.7047 15.2341C26.0667 11.9299 31.7573 3.85288 31.7573 3.85288L25.1489 -0.736328C25.1489 -0.736328 20.1925 5.505 13.584 7.89139C6.97557 10.2778 -0.734306 8.62567 -0.734306 8.62567V17.0698C-0.734306 17.0698 7.34271 18.5384 16.7047 15.2341Z" fill="white"/>
<path d="M19.6418 21.6174C10.2798 24.9217 4.58917 32.9987 4.58917 32.9987L11.1976 37.5879C11.1976 37.5879 16.154 31.3466 22.7625 28.9602C29.3709 26.5738 37.0808 28.2259 37.0808 28.2259V19.7817C37.0808 19.7817 29.0038 18.3132 19.6418 21.6174Z" fill="white"/>
<path d="M16.7047 21.6174C26.0667 24.9217 31.7573 32.9987 31.7573 32.9987L25.1489 37.5879C25.1489 37.5879 20.1925 31.3466 13.584 28.9602C6.97557 26.5738 -0.734306 28.2259 -0.734306 28.2259V19.7817C-0.734306 19.7817 7.34271 18.3132 16.7047 21.6174Z" fill="white"/>
</g>
<path d="M56.315 15.4343V23.9341C56.315 24.5261 56.4524 24.9595 56.7273 25.2344C57.0233 25.4881 57.5096 25.615 58.1862 25.615H60.2477V29.3574H57.4567C53.7143 29.3574 51.8431 27.5391 51.8431 23.9024V15.4343H49.7499V11.7871H51.8431V7.44203H56.315V11.7871H60.2477V15.4343H56.315ZM67.8814 14.5146C68.4523 13.5843 69.1923 12.8548 70.1015 12.3262C71.0318 11.7976 72.089 11.5333 73.2731 11.5333V16.1955H72.0996C70.7041 16.1955 69.6469 16.5232 68.9281 17.1787C68.2303 17.8341 67.8814 18.9759 67.8814 20.604V29.3574H63.4413V11.7871H67.8814V14.5146ZM86.8884 26.8519C86.4021 27.6554 85.6092 28.332 84.5098 28.8817C83.4103 29.4103 82.2263 29.6746 80.9576 29.6746C79.8582 29.6746 78.8644 29.4526 77.9764 29.0086C77.0883 28.5645 76.3906 27.9514 75.8832 27.1691C75.3757 26.3867 75.122 25.4881 75.122 24.4732C75.122 22.8452 75.7246 21.5131 76.9298 20.4771C78.1561 19.4411 79.985 18.923 82.4165 18.923H86.8884C86.8461 17.8024 86.5184 16.9144 85.9052 16.2589C85.3132 15.5823 84.4886 15.244 83.4314 15.244C82.5011 15.244 81.7294 15.4978 81.1162 16.0052C80.503 16.4915 80.1119 17.1787 79.9427 18.0667H75.5026C75.714 16.7981 76.1686 15.6669 76.8663 14.6732C77.5852 13.6583 78.5155 12.8759 79.6573 12.3262C80.8202 11.7553 82.1205 11.4699 83.5583 11.4699C85.0384 11.4699 86.3704 11.7765 87.5544 12.3896C88.7596 13.0028 89.7005 13.8803 90.3771 15.022C91.0537 16.1638 91.392 17.5064 91.392 19.0499V29.3574H86.8884V26.8519ZM82.258 26.0907C82.998 26.0907 83.7169 25.9322 84.4146 25.615C85.1335 25.2978 85.7255 24.8221 86.1907 24.1878C86.6558 23.5535 86.8884 22.8029 86.8884 21.936V21.8091H82.6703C81.6554 21.8091 80.8942 22.01 80.3868 22.4117C79.9004 22.8135 79.6573 23.3421 79.6573 23.9975C79.6573 24.6318 79.8793 25.1393 80.3233 25.5198C80.7885 25.9004 81.4334 26.0907 82.258 26.0907ZM94.6344 20.5722C94.6344 18.7539 95.0044 17.1681 95.7445 15.8149C96.4845 14.4406 97.51 13.3834 98.8209 12.6434C100.132 11.8822 101.633 11.5016 103.324 11.5016C105.502 11.5016 107.299 12.0513 108.716 13.1508C110.154 14.2291 111.116 15.7515 111.602 17.7178H106.813C106.559 16.9567 106.126 16.3647 105.513 15.9418C104.921 15.4978 104.181 15.2758 103.293 15.2758C102.024 15.2758 101.02 15.7409 100.28 16.6712C99.5398 17.5804 99.1697 18.8807 99.1697 20.5722C99.1697 22.2426 99.5398 23.5429 100.28 24.4732C101.02 25.3824 102.024 25.837 103.293 25.837C105.09 25.837 106.263 25.0335 106.813 23.4266H111.602C111.116 25.3296 110.154 26.8413 108.716 27.9619C107.278 29.0826 105.481 29.6429 103.324 29.6429C101.633 29.6429 100.132 29.2728 98.8209 28.5328C97.51 27.7716 96.4845 26.7145 95.7445 25.3613C95.0044 23.9869 94.6344 22.3906 94.6344 20.5722ZM125.258 29.3574L119.295 21.8726V29.3574H114.855V5.88797H119.295V19.2402L125.194 11.7871H130.966L123.228 20.604L131.03 29.3574H125.258ZM149.71 20.1917C149.71 20.826 149.668 21.3968 149.583 21.9043H136.738C136.844 23.1729 137.288 24.1667 138.07 24.8855C138.853 25.6044 139.815 25.9639 140.956 25.9639C142.606 25.9639 143.779 25.2556 144.477 23.8389H149.266C148.758 25.5304 147.786 26.9259 146.348 28.0254C144.91 29.1037 143.145 29.6429 141.052 29.6429C139.36 29.6429 137.838 29.2728 136.484 28.5328C135.152 27.7716 134.106 26.7039 133.345 25.3296C132.605 23.9552 132.235 22.3694 132.235 20.5722C132.235 18.7539 132.605 17.1575 133.345 15.7832C134.085 14.4089 135.121 13.3517 136.453 12.6117C137.785 11.8716 139.318 11.5016 141.052 11.5016C142.722 11.5016 144.212 11.8611 145.523 12.5799C146.855 13.2988 147.881 14.3243 148.6 15.6563C149.34 16.9672 149.71 18.479 149.71 20.1917ZM145.111 18.923C145.09 17.7813 144.678 16.8721 143.874 16.1955C143.071 15.4978 142.088 15.1489 140.925 15.1489C139.825 15.1489 138.895 15.4872 138.134 16.1638C137.394 16.8192 136.939 17.739 136.77 18.923H145.111ZM151.809 20.5088C151.809 18.7327 152.158 17.1575 152.856 15.7832C153.574 14.4089 154.547 13.3517 155.773 12.6117C157 11.8716 158.364 11.5016 159.865 11.5016C161.006 11.5016 162.095 11.7553 163.131 12.2628C164.167 12.7491 164.992 13.4045 165.605 14.2291V5.88797H170.109V29.3574H165.605V26.7568C165.055 27.6236 164.284 28.3214 163.29 28.85C162.296 29.3786 161.144 29.6429 159.833 29.6429C158.353 29.6429 157 29.2623 155.773 28.5011C154.547 27.7399 153.574 26.6722 152.856 25.2978C152.158 23.9024 151.809 22.306 151.809 20.5088ZM165.637 20.5722C165.637 19.4939 165.426 18.5742 165.003 17.813C164.58 17.0307 164.009 16.4387 163.29 16.0369C162.571 15.6141 161.799 15.4026 160.975 15.4026C160.15 15.4026 159.389 15.6035 158.691 16.0052C157.994 16.4069 157.423 16.999 156.979 17.7813C156.556 18.5424 156.344 19.4516 156.344 20.5088C156.344 21.566 156.556 22.4963 156.979 23.2998C157.423 24.0821 157.994 24.6847 158.691 25.1075C159.41 25.5304 160.171 25.7419 160.975 25.7419C161.799 25.7419 162.571 25.541 163.29 25.1393C164.009 24.7164 164.58 24.1244 165.003 23.3632C165.426 22.5809 165.637 21.6506 165.637 20.5722Z" fill="white"/>
</svg>
