<svg width="16" height="16" viewBox="0 0 16 16" fill="none" xmlns="http://www.w3.org/2000/svg">
<path fill-rule="evenodd" clip-rule="evenodd" d="M8 0C7.78783 0 7.58435 0.0842854 7.43432 0.234315C7.28429 0.384344 7.2 0.587827 7.2 0.8C7.2 1.01217 7.28429 1.21566 7.43432 1.36569C7.58435 1.51571 7.78783 1.6 8 1.6C9.4092 1.60028 10.7789 2.06565 11.8966 2.92392C13.0143 3.78218 13.8175 4.98534 14.1815 6.34671C14.5455 7.70807 14.4501 9.15153 13.9099 10.4531C13.3698 11.7547 12.4152 12.8416 11.1942 13.5452C9.97321 14.2488 8.55414 14.5297 7.15718 14.3444C5.76021 14.1591 4.46346 13.5179 3.46814 12.5204C2.47281 11.5228 1.83456 10.2246 1.65243 8.82719C1.47029 7.42981 1.75445 6.01138 2.46081 4.792L3.43441 5.7656C3.54629 5.87745 3.68882 5.95361 3.84398 5.98447C3.99914 6.01532 4.15997 5.99948 4.30613 5.93894C4.45229 5.87841 4.57722 5.77589 4.66513 5.64437C4.75304 5.51284 4.79997 5.3582 4.80001 5.2V2C4.80001 1.78783 4.71572 1.58434 4.56569 1.43431C4.41566 1.28429 4.21218 1.2 4.00001 1.2H0.800009C0.641809 1.20003 0.48717 1.24697 0.355642 1.33488C0.224114 1.42279 0.121603 1.54772 0.0610668 1.69388C0.000530755 1.84004 -0.0153117 2.00086 0.0155424 2.15603C0.0463964 2.31119 0.122561 2.45372 0.234409 2.5656L1.29841 3.6296C0.448956 4.92874 -0.00233991 6.4478 9.12367e-06 8C9.12367e-06 12.4184 3.58161 16 8 16C12.4184 16 16 12.4184 16 8C16 3.5816 12.4184 0 8 0Z" fill="white"/>
</svg>
